<svg data-v-0dd9719b="" version="1.0" xmlns="http://www.w3.org/2000/svg" xmlns:xlink="http://www.w3.org/1999/xlink" width="100%" height="100%" viewBox="0 0 340.000000 250.000000" preserveAspectRatio="xMidYMid meet" color-interpolation-filters="sRGB" style="margin: auto;"> <rect data-v-0dd9719b="" x="0" y="0" width="100%" height="100%" fill="#fff" fill-opacity="1" class="background"></rect> <rect data-v-0dd9719b="" x="0" y="0" width="100%" height="100%" fill="url(#watermark)" fill-opacity="1" class="watermarklayer"></rect> <g data-v-0dd9719b="" fill="#9b0660" class="icon-text-wrapper icon-svg-group iconsvg" transform="translate(75.79545593261719,86.10469818115234)"><g class="iconsvg-imagesvg" transform="translate(0,8.895301818847656)"><g><rect fill="#9b0660" fill-opacity="0" stroke-width="2" x="0" y="0" width="60" height="60" class="image-rect"></rect> <svg x="0" y="0" width="60" height="60" filtersec="colorsb780611803" class="image-svg-svg primary" style="overflow: visible;"><svg xmlns="http://www.w3.org/2000/svg" viewBox="0 0 48.189998626708984 48.189998626708984"><g><g fill="#9b0660"><path d="M30.83 14.52q0 2.37 9.92 6.15a16.07 16.07 0 0 1 7.44 5.21V13.7a8.93 8.93 0 0 0-1-.48l-1.67-.64-2.7-.86a27.14 27.14 0 0 0-5.5-.54l-2.37.21a5.84 5.84 0 0 0-2.15.54 2.53 2.53 0 0 0-1.97 2.59z"></path><path d="M17.78 36a26.73 26.73 0 0 0 3 1.56 26.47 26.47 0 0 0 3.4 1.24l3.56.54 3.56.22H33a1.85 1.85 0 0 1 .65-.11 2.63 2.63 0 0 0 1.6-.45 3.07 3.07 0 0 0 1.83-3q0-3.13-9.92-6.91t-9.92-13.71q0-8.19 6.25-12.4A20.55 20.55 0 0 1 29.31.56 27.11 27.11 0 0 1 32 0H0v48.19h17.78z"></path></g></g></svg></svg> <!----></g></g> <g transform="translate(67,0)"><g data-gra="path-name" fill-rule="" class="tp-name iconsvg-namesvg"><g transform="scale(1)"><g><path d="M2.47-1.5L2.47-1.5Q1.63-2.47 1.92-4.13 2.21-5.79 3.15-7.8 4.09-9.81 5.2-11.67 6.31-13.52 7.15-14.88L7.15-14.88Q7.48-15.34 7.74-15.73L7.74-15.73Q7.61-15.86 7.41-15.99L7.41-15.99Q7.02-16.38 6.44-16.77L6.44-16.77Q3.51-18.79 2.05-21.68 0.58-24.57 0.36-27.92 0.13-31.27 1.01-34.58 1.89-37.9 3.67-40.79 5.46-43.68 8.03-45.66 10.6-47.65 13.78-48.36L13.78-48.36Q17.09-49.01 19.24-48.23 21.39-47.45 22.43-45.27 23.46-43.09 23.53-39.59L23.53-39.59Q23.53-37.38 22.75-35.81 21.97-34.26 20.83-33.64 19.7-33.02 18.69-33.7 17.68-34.38 17.16-36.59L17.16-36.59Q17.03-37.31 17.09-37.63 17.16-37.96 17.48-38.16L17.48-38.16Q17.81-38.22 18.04-37.93 18.27-37.63 18.53-37.12L18.53-37.12Q19.05-35.16 19.66-34.84 20.28-34.52 20.9-35.26 21.52-36.01 21.84-37.31 22.16-38.61 22.1-40.04L22.1-40.04Q21.84-43.03 20.7-44.13 19.57-45.24 17.88-44.88 16.19-44.52 14.33-42.97 12.48-41.41 10.86-39.07 9.23-36.73 8.19-33.9 7.15-31.07 7.05-28.08 6.96-25.09 8.22-22.36 9.49-19.63 12.48-17.42L12.48-17.42Q15.15-15.41 16.19-12.87 17.23-10.34 16.57-7.67L16.57-7.67Q15.99-5.2 14.66-3.38 13.33-1.56 11.86-0.49 10.4 0.58 9.43 0.65L9.43 0.65Q8.26 0.72 6.83 0.39 5.4 0.07 4.19-0.42 2.99-0.91 2.47-1.5ZM9.88-10.6L9.88-10.6Q9.95-11.51 9.72-12.48 9.49-13.46 8.84-14.43L8.84-14.43Q8.06-13.2 6.96-11.38 5.85-9.55 4.94-7.64 4.03-5.72 3.67-4.23 3.31-2.73 4.03-2.15L4.03-2.15Q4.55-1.63 5.46-2.15 6.37-2.67 7.31-3.93 8.26-5.2 8.97-6.92 9.69-8.64 9.88-10.6ZM57.27-41.86L46.15-19.37 53.3-21.39Q53.95-24.64 54.83-29.22 55.7-33.8 56.48-37.9L56.48-37.9Q56.94-40.23 57.27-41.86L57.27-41.86ZM26.46-3.45L26.46-3.45Q25.03-0.07 25.61 0.94 26.2 1.95 28.11 0.98 30.03 0 32.73-2.57 35.42-5.13 38.25-8.84 41.08-12.54 43.42-17.03L43.42-17.03Q39.91-15.86 37.02-14.14 34.13-12.42 31.91-10.5 29.71-8.58 28.31-6.73 26.91-4.88 26.46-3.45ZM52.91-19.76L52.91-19.76 45.17-17.42Q42.64-12.42 39.78-8.55 36.92-4.68 34.19-2.02 31.46 0.65 29.22 1.98 26.98 3.31 25.55 3.19 24.12 3.06 23.89 1.33 23.66-0.39 25.03-3.77L25.03-3.77Q25.35-4.62 26.1-5.88 26.84-7.15 28.18-8.74 29.51-10.34 31.66-12.06 33.8-13.78 36.92-15.57 40.04-17.36 44.33-18.98L44.33-18.98 59.02-48.95Q60-49.01 60.97-48.88 61.95-48.75 62.79-48.3 63.64-47.84 64.28-46.87L64.28-46.87Q64.42-46.28 63.89-42.58 63.38-38.87 62.53-33.34L62.53-33.34Q61.75-28.21 60.91-22.62L60.91-22.62Q61.49-22.82 61.95-22.95L61.95-22.95Q62.79-23.21 63.44-23.43 64.09-23.66 64.87-23.92L64.87-23.92Q65.26-24.05 65.68-24.12 66.11-24.18 66.43-24.05 66.75-23.92 66.89-23.46L66.89-23.46Q67.02-23.07 66.72-22.82 66.43-22.55 65.72-22.3L65.72-22.3Q65.2-22.16 64.55-21.97L64.55-21.97Q63.64-21.71 62.66-21.45 61.69-21.19 60.71-20.8L60.71-20.8Q60.32-19.05 59.83-15.83 59.34-12.61 58.89-9.29L58.89-9.29Q58.56-6.96 58.31-5.17 58.05-3.38 57.92-2.67L57.92-2.67Q57.66-1.56 57.43-0.88 57.2-0.2 56.75 0.13L56.75 0.13Q56.23 0.52 55.22 0.46 54.21 0.39 53.14-0.03 52.06-0.46 51.32-1.1 50.57-1.76 50.51-2.6L50.51-2.6Q50.51-5.13 50.99-8.58 51.48-12.03 52.91-19.76ZM80.28-21.45L80.28-21.45Q79.89-18.39 80.08-15.67 80.28-12.94 81.12-10.63 81.97-8.32 83.62-6.66 85.28-5 87.88-4.16L87.88-4.16Q88.2-3.31 87.94-2.6 87.69-1.89 87.2-1.43 86.71-0.98 86.45-0.78L86.45-0.78 86.39-0.72 86.32-0.65Q86.06-0.52 85.61-0.23 85.15 0.07 84.73 0.23 84.31 0.39 84.11 0.2L84.11 0.2Q82.55 0.2 81.12-1.46 79.69-3.12 78.65-5.75 77.61-8.38 77.06-11.41 76.5-14.43 76.64-17.29L76.64-17.29Q76.25-15.02 75.89-13.2 75.53-11.38 75.08-9.49L75.08-9.49Q74.69-7.67 74.23-5.4 73.78-3.12 73.19 0L73.19 0 72.73 0Q72.15 0.07 71.08 0 70-0.07 68.9-0.52L68.9-0.52Q67.53-1.56 67.24-3.51 66.95-5.46 67.53-9 68.12-12.54 69.36-18.53L69.36-18.53Q70.2-22.43 71.17-27.5L71.17-27.5Q73-36.79 74.17-42.93 75.34-49.08 75.34-49.08L75.34-49.08Q77.09-49.27 78.26-48.91 79.43-48.55 80.08-47.94 80.73-47.32 80.99-46.64 81.25-45.95 81.31-45.5L81.31-45.5Q81.25-45.3 77.55-26.71L77.55-26.71Q77.87-27.76 78.19-28.73L78.19-28.73Q79.5-33.22 80.73-36.89 81.97-40.56 83.2-43.23 84.44-45.89 85.83-47.29 87.23-48.69 88.98-48.62L88.98-48.62Q92.11-49.08 93.83-47.74 95.55-46.41 95.68-43.03L95.68-43.03Q95.68-38.74 94.61-34.77 93.53-30.81 91.52-27.76 89.5-24.7 86.68-22.98 83.85-21.25 80.28-21.45ZM85.87-44.91L85.87-44.91Q84.76-43.23 83.75-40.5 82.75-37.77 81.77-34.52 80.8-31.27 79.89-27.89L79.89-27.89Q79.3-25.74 78.72-23.66L78.72-23.66Q80.86-23.79 82.68-25.45 84.5-27.11 85.93-29.67 87.36-32.24 88.27-35.16 89.18-38.09 89.57-40.69 89.96-43.29 89.7-44.95 89.44-46.61 88.5-46.77 87.56-46.93 85.87-44.91ZM121.36-45.57L121.36-45.57Q118.04-38.87 112.58-26.71 107.12-14.56 100.62 0.13L100.62 0.13 100.43 0.13Q100.04 0.07 99.13-0.1 98.22-0.26 97.18-0.62 96.14-0.98 95.39-1.63 94.64-2.27 94.51-3.25L94.51-3.25Q94.45-4.16 94.67-6.27 94.9-8.38 95.29-11.44L95.29-11.44Q95.88-15.79 96.49-21.61 97.11-27.43 97.5-34.16 97.89-40.88 97.63-48.1L97.63-48.1Q98.67-48.95 100.17-48.85 101.66-48.75 103.03-47.87 104.39-47 104.91-45.44L104.91-45.44Q105.3-44.13 105.14-38.29 104.98-32.44 104.26-24.57 103.55-16.71 102.31-9.43L102.31-9.43Q104.39-13.2 106.83-18.49 109.27-23.79 111.74-29.38L111.74-29.38Q114.4-35.43 116.64-40.2 118.89-44.98 120.19-46.87L120.19-46.87Q120.45-47.19 120.77-47.26 121.09-47.32 121.36-47.13L121.36-47.13 121.42-47.06Q121.55-47 121.65-46.83 121.75-46.67 121.71-46.38 121.68-46.09 121.36-45.57Z" transform="translate(-0.3123423457145691, 49.14563751220703)"></path></g> <!----> <!----> <!----> <!----> <!----> <!----> <g data-gra="path-name-1" fill="#9b0660" transform="translate(0,55.3455696105957)"><g transform="scale(1.063)"><path d="M8.78-11.83L8.78-11.83Q8.68-11.91 8.65-12.06 8.61-12.21 8.71-12.48L8.71-12.48Q9.3-14.37 9.33-15.42 9.35-16.47 8.96-16.78 8.56-17.09 7.89-16.75 7.22-16.4 6.46-15.47 5.71-14.54 4.99-13.12 4.27-11.71 3.78-9.87 3.3-8.04 3.18-5.88 3.05-3.72 3.47-1.34L3.47-1.34Q3.72-0.42 4.11-0.24 4.49-0.05 4.95-0.38 5.41-0.72 5.89-1.43 6.38-2.13 6.84-3.01 7.29-3.9 7.69-4.76L7.69-4.76Q7.77-4.96 7.88-5.04 7.99-5.11 8.16-5.09L8.16-5.09Q8.34-5.04 8.36-4.88 8.39-4.71 8.34-4.49L8.34-4.49Q8.19-4.17 8.04-3.85L8.04-3.85Q7.64-2.93 7.23-2.11 6.82-1.29 6.34-0.62 5.86 0.05 5.26 0.47 4.66 0.89 3.9 1 3.13 1.12 2.11 0.82L2.11 0.82Q1.36 0.6 0.96-0.09 0.55-0.77 0.42-2.03L0.42-2.03Q0.12-5.06 0.37-7.52 0.62-9.97 1.25-11.86 1.89-13.74 2.78-15.1 3.67-16.45 4.68-17.24 5.68-18.04 6.65-18.31 7.62-18.58 8.39-18.32 9.16-18.06 9.61-17.29 10.07-16.52 10.05-15.25 10.02-13.97 9.38-12.18L9.38-12.18Q9.2-11.88 9.07-11.82 8.93-11.76 8.78-11.83ZM15.88-15.04L15.88-15.04Q15.51-13.72 15.12-12.03 14.74-10.35 14.4-8.58 14.07-6.82 13.89-5.27 13.72-3.72 13.77-2.68 13.82-1.64 14.19-1.36L14.19-1.36Q15.01-0.92 15.7-1.27 16.4-1.61 16.96-2.49 17.52-3.37 17.94-4.55 18.36-5.73 18.67-6.96 18.98-8.19 19.18-9.23 19.38-10.27 19.45-10.89L19.45-10.89Q19.58-11.91 19.58-13.01 19.58-14.12 19.4-15.18 19.23-16.25 18.87-17.09 18.51-17.94 17.9-18.43 17.29-18.93 16.45-18.91L16.45-18.91Q15.33-18.83 14.45-18.35 13.57-17.86 12.94-17.08 12.31-16.3 11.87-15.38 11.44-14.46 11.19-13.53 10.94-12.6 10.87-11.81L10.87-11.81Q10.84-11.44 10.76-11.34 10.67-11.24 10.54-11.24L10.54-11.24Q10.37-11.26 10.33-11.46 10.3-11.66 10.3-11.88L10.3-11.88Q10.27-12.23 10.38-12.89 10.49-13.55 10.77-14.38 11.04-15.21 11.52-16.08 12.01-16.95 12.7-17.69 13.4-18.43 14.37-18.91L14.37-18.91Q15.78-19.58 16.97-19.36 18.16-19.15 18.97-18.11 19.77-17.07 20.11-15.3 20.44-13.52 20.15-11.12L20.15-11.12Q19.8-8.34 19.24-6.33 18.68-4.32 18.06-3.05 17.44-1.79 16.92-1.27L16.92-1.27Q16.45-0.57 15.59-0.26 14.74 0.05 13.77 0 12.8-0.05 12.01-0.42L12.01-0.42Q11.14-0.92 10.79-2.11 10.45-3.3 10.49-4.9 10.54-6.5 10.85-8.25 11.16-10 11.59-11.6 12.01-13.2 12.43-14.38 12.85-15.56 13.12-16.03L13.12-16.03Q13.45-16.55 13.82-16.68 14.19-16.82 14.56-16.68 14.94-16.55 15.25-16.26 15.56-15.98 15.73-15.64 15.9-15.31 15.88-15.04ZM33.57 0.37L33.57 0.37Q33.35 0.47 32.86 0.48 32.38 0.5 31.93 0.36 31.48 0.22 31.39-0.1L31.39-0.1Q31.26-0.69 31.43-2.48 31.61-4.27 31.96-6.57 32.3-8.88 32.68-11.04 33.05-13.2 33.27-14.54L33.27-14.54Q32.82-13.35 31.97-10.88 31.11-8.41 30.37-6.18 29.62-3.94 29.52-3.42L29.52-3.42Q29.5-3.35 29.11-3.34 28.73-3.32 28.22-3.42 27.71-3.52 27.33-3.72 26.94-3.92 26.94-4.24L26.94-4.24Q26.92-5.9 27.02-7.52 27.12-9.13 27.27-10.67L27.27-10.67Q27.34-11.76 27.43-12.81 27.51-13.87 27.54-14.91L27.54-14.91Q26.97-13.12 26.32-10.42 25.68-7.72 25.11-5.07 24.54-2.43 24.21-0.87L24.21-0.87Q24.19-0.77 24.17-0.67L24.17-0.67Q24.07-0.35 23.64-0.24 23.22-0.12 22.73-0.22 22.23-0.32 21.86-0.62 21.49-0.92 21.51-1.44L21.51-1.44Q21.58-3.23 21.96-5.86 22.33-8.49 22.8-11.16 23.27-13.84 23.67-15.82 24.07-17.79 24.19-18.24L24.19-18.24Q24.36-18.38 24.76-18.48 25.16-18.58 25.6-18.52 26.05-18.46 26.35-18.12 26.65-17.79 26.57-17.07L26.57-17.07Q26.17-14.91 25.89-12.94 25.6-10.97 25.38-9.38L25.38-9.38Q25.16-7.86 25.01-6.87L25.01-6.87Q25.28-7.96 25.58-9.33L25.58-9.33Q25.83-10.49 26.1-11.67 26.37-12.85 26.68-13.87 26.99-14.89 27.3-15.53 27.61-16.18 27.96-16.3L27.96-16.3Q28.16-16.37 28.57-16.36 28.98-16.35 29.43-16.19 29.87-16.03 30.17-15.66L30.17-15.66Q30.34-15.46 30.36-14.51 30.37-13.57 30.28-12.24 30.19-10.92 30.09-9.53L30.09-9.53Q29.97-8.01 29.9-6.87L29.9-6.87Q30.57-8.56 31.09-9.99 31.61-11.41 32.01-12.58L32.01-12.58Q32.45-13.92 32.81-14.87 33.17-15.83 33.51-16.37 33.84-16.92 34.19-17.04L34.19-17.04Q34.19-17.04 34.41-17.01 34.64-16.97 34.95-16.87 35.26-16.77 35.52-16.59 35.78-16.4 35.85-16.1L35.85-16.1Q35.9-15.56 35.62-13.24 35.33-10.92 34.91-7.98 34.49-5.04 34.1-2.65 33.72-0.27 33.57 0.37ZM48.83 0.37L48.83 0.37Q48.6 0.47 48.12 0.48 47.64 0.5 47.19 0.36 46.74 0.22 46.64-0.1L46.64-0.1Q46.52-0.69 46.69-2.48 46.87-4.27 47.21-6.57 47.56-8.88 47.93-11.04 48.31-13.2 48.53-14.54L48.53-14.54Q48.08-13.35 47.23-10.88 46.37-8.41 45.63-6.18 44.88-3.94 44.78-3.42L44.78-3.42Q44.76-3.35 44.37-3.34 43.99-3.32 43.48-3.42 42.97-3.52 42.59-3.72 42.2-3.92 42.2-4.24L42.2-4.24Q42.18-5.9 42.28-7.52 42.38-9.13 42.52-10.67L42.52-10.67Q42.6-11.76 42.69-12.81 42.77-13.87 42.8-14.91L42.8-14.91Q42.23-13.12 41.58-10.42 40.94-7.72 40.37-5.07 39.8-2.43 39.47-0.87L39.47-0.87Q39.45-0.77 39.42-0.67L39.42-0.67Q39.32-0.35 38.9-0.24 38.48-0.12 37.98-0.22 37.49-0.32 37.12-0.62 36.74-0.92 36.77-1.44L36.77-1.44Q36.84-3.23 37.22-5.86 37.59-8.49 38.06-11.16 38.53-13.84 38.93-15.82 39.32-17.79 39.45-18.24L39.45-18.24Q39.62-18.38 40.02-18.48 40.42-18.58 40.86-18.52 41.31-18.46 41.61-18.12 41.9-17.79 41.83-17.07L41.83-17.07Q41.43-14.91 41.15-12.94 40.86-10.97 40.64-9.38L40.64-9.38Q40.42-7.86 40.27-6.87L40.27-6.87Q40.54-7.96 40.84-9.33L40.84-9.33Q41.09-10.49 41.36-11.67 41.63-12.85 41.94-13.87 42.25-14.89 42.56-15.53 42.87-16.18 43.22-16.3L43.22-16.3Q43.42-16.37 43.83-16.36 44.24-16.35 44.68-16.19 45.13-16.03 45.43-15.66L45.43-15.66Q45.6-15.46 45.61-14.51 45.63-13.57 45.54-12.24 45.45-10.92 45.35-9.53L45.35-9.53Q45.23-8.01 45.15-6.87L45.15-6.87Q45.82-8.56 46.35-9.99 46.87-11.41 47.26-12.58L47.26-12.58Q47.71-13.92 48.07-14.87 48.43-15.83 48.76-16.37 49.1-16.92 49.45-17.04L49.45-17.04Q49.45-17.04 49.67-17.01 49.89-16.97 50.2-16.87 50.51-16.77 50.77-16.59 51.03-16.4 51.11-16.1L51.11-16.1Q51.16-15.56 50.87-13.24 50.59-10.92 50.17-7.98 49.74-5.04 49.36-2.65 48.98-0.27 48.83 0.37ZM57.44-7.1L57.44-7.1Q57.29-6.97 56.93-6.48 56.57-5.98 56.15-5.21 55.72-4.44 55.38-3.5 55.03-2.56 54.91-1.56L54.91-1.56 54.91-1.44Q54.88-1.22 54.92-1 54.95-0.79 55.12-0.68 55.28-0.57 55.67-0.67L55.67-0.67Q56.05-0.77 56.6-1.07 57.16-1.36 57.81-1.92 58.45-2.48 59.1-3.35L59.1-3.35Q59.15-3.4 59.2-3.47L59.2-3.47Q59.3-3.65 59.43-3.76 59.57-3.87 59.77-3.8L59.77-3.8Q59.99-3.67 59.99-3.51 59.99-3.35 59.87-3.23L59.87-3.23Q59.37-2.61 58.69-1.91 58.01-1.22 57.19-0.66 56.37-0.1 55.44 0.12 54.51 0.35 53.52 0.07L53.52 0.07Q52.57-0.22 52.32-0.93 52.08-1.64 52.36-2.56 52.65-3.47 53.28-4.44 53.91-5.41 54.73-6.25 55.55-7.1 56.39-7.64L56.39-7.64Q55.77-7.82 55.15-8.06 54.53-8.31 53.99-8.66 53.44-9.01 53.07-9.49 52.7-9.97 52.59-10.59 52.47-11.21 52.72-12.03L52.72-12.03Q53.29-13.67 54.31-14.9 55.33-16.13 56.6-16.95 57.88-17.76 59.2-18.16 60.51-18.56 61.68-18.56 62.84-18.56 63.64-18.14L63.64-18.14Q64.61-17.57 64.71-16.83 64.8-16.1 64.1-15.39 63.39-14.69 61.88-14.17L61.88-14.17Q61.48-14.02 61.32-14.03 61.16-14.04 61.11-14.17L61.11-14.17Q61.03-14.22 61.06-14.34 61.08-14.46 61.21-14.54L61.21-14.54Q61.41-14.64 61.75-14.76L61.75-14.76Q62.15-14.91 62.61-15.12 63.07-15.33 63.44-15.62 63.81-15.9 63.95-16.28 64.09-16.65 63.84-17.14L63.84-17.14Q63.51-17.66 62.78-17.63 62.05-17.59 61.1-17.14 60.14-16.7 59.15-15.97 58.16-15.23 57.31-14.34 56.47-13.45 55.95-12.54 55.43-11.64 55.41-10.84 55.4-10.05 56.08-9.5 56.77-8.96 58.33-8.78L58.33-8.78Q58.53-8.86 58.7-8.72 58.87-8.58 58.87-8.39 58.87-8.19 58.58-8.04L58.58-8.04Q58.4-7.96 58.22-7.82 58.03-7.67 57.85-7.49 57.66-7.32 57.55-7.21 57.44-7.1 57.44-7.1ZM67.19-8.19L67.19-8.19Q67.04-7.02 67.11-5.98 67.19-4.94 67.51-4.06 67.83-3.18 68.46-2.54 69.1-1.91 70.09-1.59L70.09-1.59Q70.21-1.27 70.11-0.99 70.01-0.72 69.83-0.55 69.64-0.37 69.54-0.3L69.54-0.3 69.52-0.27 69.49-0.25Q69.39-0.2 69.22-0.09 69.05 0.02 68.89 0.09 68.72 0.15 68.65 0.07L68.65 0.07Q68.05 0.07 67.51-0.56 66.96-1.19 66.57-2.2 66.17-3.2 65.96-4.35 65.75-5.51 65.8-6.6L65.8-6.6Q65.65-5.73 65.51-5.04 65.38-4.34 65.2-3.62L65.2-3.62Q65.05-2.93 64.88-2.06 64.71-1.19 64.48 0L64.48 0 64.31 0Q64.09 0.02 63.68 0 63.27-0.02 62.84-0.2L62.84-0.2Q62.32-0.6 62.21-1.34 62.1-2.08 62.32-3.44 62.55-4.79 63.02-7.07L63.02-7.07Q63.34-8.56 63.71-10.49L63.71-10.49Q64.41-14.04 64.85-16.39 65.3-18.73 65.3-18.73L65.3-18.73Q65.97-18.81 66.42-18.67 66.86-18.53 67.11-18.3 67.36-18.06 67.46-17.8 67.56-17.54 67.58-17.37L67.58-17.37Q67.56-17.29 66.14-10.2L66.14-10.2Q66.27-10.59 66.39-10.97L66.39-10.97Q66.89-12.68 67.36-14.08 67.83-15.48 68.3-16.5 68.77-17.52 69.31-18.05 69.84-18.58 70.51-18.56L70.51-18.56Q71.7-18.73 72.36-18.22 73.02-17.71 73.07-16.42L73.07-16.42Q73.07-14.79 72.66-13.27 72.25-11.76 71.48-10.59 70.71-9.43 69.63-8.77 68.55-8.11 67.19-8.19ZM69.32-17.14L69.32-17.14Q68.9-16.5 68.51-15.46 68.13-14.41 67.76-13.17 67.38-11.93 67.04-10.64L67.04-10.64Q66.81-9.82 66.59-9.03L66.59-9.03Q67.41-9.08 68.1-9.71 68.8-10.35 69.34-11.33 69.89-12.31 70.24-13.42 70.59-14.54 70.73-15.53 70.88-16.52 70.78-17.16 70.68-17.79 70.32-17.85 69.97-17.91 69.32-17.14ZM81.4-11.83L81.4-11.83Q81.3-11.91 81.27-12.06 81.23-12.21 81.33-12.48L81.33-12.48Q81.92-14.37 81.95-15.42 81.97-16.47 81.58-16.78 81.18-17.09 80.51-16.75 79.84-16.4 79.08-15.47 78.33-14.54 77.61-13.12 76.89-11.71 76.4-9.87 75.92-8.04 75.8-5.88 75.67-3.72 76.09-1.34L76.09-1.34Q76.34-0.42 76.73-0.24 77.11-0.05 77.57-0.38 78.03-0.72 78.51-1.43 79-2.13 79.46-3.01 79.91-3.9 80.31-4.76L80.31-4.76Q80.39-4.96 80.5-5.04 80.61-5.11 80.78-5.09L80.78-5.09Q80.96-5.04 80.98-4.88 81.01-4.71 80.96-4.49L80.96-4.49Q80.81-4.17 80.66-3.85L80.66-3.85Q80.26-2.93 79.85-2.11 79.44-1.29 78.96-0.62 78.48 0.05 77.88 0.47 77.28 0.89 76.52 1 75.75 1.12 74.73 0.82L74.73 0.82Q73.98 0.6 73.58-0.09 73.17-0.77 73.04-2.03L73.04-2.03Q72.74-5.06 72.99-7.52 73.24-9.97 73.87-11.86 74.51-13.74 75.4-15.1 76.29-16.45 77.3-17.24 78.3-18.04 79.27-18.31 80.24-18.58 81.01-18.32 81.77-18.06 82.23-17.29 82.69-16.52 82.67-15.25 82.64-13.97 82-12.18L82-12.18Q81.82-11.88 81.69-11.82 81.55-11.76 81.4-11.83ZM88.23-17.79L88.23-17.79 85.47-0.1Q84.75 0.1 84.14-0.01 83.54-0.12 83.19-0.51 82.84-0.89 82.89-1.51L82.89-1.51Q83.11-3.92 83.7-7.41 84.28-10.89 84.88-13.94 85.47-17 85.74-18.11L85.74-18.11Q85.74-18.11 85.76-18.16 85.77-18.21 85.79-18.29 85.82-18.36 85.89-18.42 85.97-18.48 86.08-18.53 86.19-18.58 86.38-18.58 86.56-18.58 86.82-18.51 87.08-18.43 87.43-18.26 87.78-18.09 88.23-17.79ZM101.67-15.98L97.43-7.39 100.16-8.16Q100.41-9.4 100.74-11.15 101.08-12.9 101.38-14.46L101.38-14.46Q101.55-15.36 101.67-15.98L101.67-15.98ZM89.91-1.31L89.91-1.31Q89.37-0.02 89.59 0.36 89.81 0.74 90.55 0.37 91.28 0 92.31-0.98 93.34-1.96 94.42-3.37 95.49-4.79 96.39-6.5L96.39-6.5Q95.05-6.05 93.94-5.4 92.84-4.74 92-4.01 91.15-3.27 90.62-2.57 90.09-1.86 89.91-1.31ZM100.01-7.54L100.01-7.54 97.06-6.65Q96.09-4.74 95-3.26 93.91-1.79 92.87-0.77 91.82 0.25 90.97 0.76 90.11 1.27 89.57 1.22 89.02 1.17 88.93 0.51 88.85-0.15 89.37-1.44L89.37-1.44Q89.49-1.76 89.78-2.25 90.06-2.73 90.57-3.34 91.08-3.94 91.9-4.6 92.72-5.26 93.91-5.94 95.1-6.62 96.74-7.24L96.74-7.24 102.34-18.68Q102.71-18.71 103.09-18.66 103.46-18.61 103.78-18.43 104.1-18.26 104.35-17.89L104.35-17.89Q104.4-17.66 104.2-16.25 104-14.84 103.68-12.73L103.68-12.73Q103.38-10.77 103.06-8.63L103.06-8.63Q103.29-8.71 103.46-8.76L103.46-8.76Q103.78-8.86 104.03-8.94 104.28-9.03 104.58-9.13L104.58-9.13Q104.72-9.18 104.89-9.2 105.05-9.23 105.17-9.18 105.3-9.13 105.34-8.96L105.34-8.96Q105.39-8.81 105.28-8.71 105.17-8.61 104.9-8.51L104.9-8.51Q104.7-8.46 104.45-8.39L104.45-8.39Q104.1-8.29 103.73-8.19 103.36-8.09 102.99-7.94L102.99-7.94Q102.84-7.27 102.65-6.04 102.47-4.81 102.29-3.55L102.29-3.55Q102.17-2.65 102.07-1.97 101.97-1.29 101.92-1.02L101.92-1.02Q101.82-0.6 101.73-0.33 101.65-0.07 101.47 0.05L101.47 0.05Q101.28 0.2 100.89 0.17 100.51 0.15 100.1-0.01 99.69-0.17 99.4-0.42 99.12-0.67 99.09-0.99L99.09-0.99Q99.09-1.96 99.28-3.27 99.46-4.59 100.01-7.54ZM107.92-0.02L107.92-0.02Q108.25 0.12 108.78 0.36 109.31 0.6 109.96 0.81 110.6 1.02 111.27 1.13 111.94 1.24 112.51 1.14 113.09 1.04 113.47 0.66 113.85 0.27 113.95-0.5L113.95-0.5Q113.95-0.65 114.03-0.68 114.1-0.72 114.2-0.72L114.2-0.72Q114.38-0.72 114.43-0.62 114.47-0.52 114.47-0.37L114.47-0.37Q114.3 0.57 113.83 1.05 113.36 1.54 112.68 1.65 111.99 1.76 111.18 1.63 110.36 1.49 109.48 1.2 108.59 0.92 107.7 0.62L107.7 0.62Q106.83 0.3 106.06 0.05L106.06 0.05Q105.94 0.02 105.85-0.02 105.77-0.07 105.67-0.17L105.67-0.17Q105.42-0.5 105.46-1.6 105.49-2.7 105.75-4.39 106.01-6.08 106.4-8.14 106.78-10.2 107.23-12.43L107.23-12.43Q107.85-15.51 108.4-18.46L108.4-18.46Q108.52-18.51 108.9-18.43 109.29-18.36 109.72-18.16 110.16-17.96 110.46-17.64L110.46-17.64Q110.58-17.47 110.6-17.16 110.63-16.85 110.63-16.42L110.63-16.42Q110.36-14.64 110.05-12.89 109.74-11.14 109.41-9.43L109.41-9.43Q108.97-7.07 108.57-4.73 108.17-2.38 107.92-0.02Z" transform="translate(-0.2563636302947998, 19.414382934570312)"></path></g></g></g></g> <!----></g></g><defs v-gra="od"></defs></svg>